HIERARCHY
ROOT newVegas:Hips
{
	OFFSET 0.000000 96.479958 0.000000
	CHANNELS 6 Xposition Yposition Zposition Xrotation Yrotation Zrotation
	JOINT newVegas:Pelvis
	{
		OFFSET 0.000000 0.000000 0.000000
		CHANNELS 3 Xrotation Yrotation Zrotation
		JOINT newVegas:LeftUpLeg
		{
			OFFSET 18.735201 -5.666702 -4.541200
			CHANNELS 3 Xrotation Yrotation Zrotation
			JOINT newVegas:LeftLeg
			{
				OFFSET -0.021200 -31.938179 0.493100
				CHANNELS 3 Xrotation Yrotation Zrotation
				JOINT newVegas:LeftFoot
				{
					OFFSET 0.021200 -31.938179 -4.336299
					CHANNELS 3 Xrotation Yrotation Zrotation
					JOINT newVegas:LeftToeBase
					{
						OFFSET 0.943001 -26.722000 15.023500
						CHANNELS 3 Xrotation Yrotation Zrotation
						End Site
						{
							OFFSET 0.000000 30.670183 0.000000
						}
					}
				}
				JOINT newVegas:Left_PantLeg
				{
					OFFSET 0.663870 -9.044666 -1.108900
					CHANNELS 3 Xrotation Yrotation Zrotation
					End Site
					{
						OFFSET 1.415995 20.635357 0.000000
					}
				}
			}
		}
		JOINT newVegas:RightUpLeg
		{
			OFFSET -18.735201 -5.666702 -4.541200
			CHANNELS 3 Xrotation Yrotation Zrotation
			JOINT newVegas:RightLeg
			{
				OFFSET 0.018946 -31.938133 0.493100
				CHANNELS 3 Xrotation Yrotation Zrotation
				JOINT newVegas:RightFoot
				{
					OFFSET -0.018946 -31.938126 -4.336299
					CHANNELS 3 Xrotation Yrotation Zrotation
					JOINT newVegas:RightToeBase
					{
						OFFSET -0.943001 -26.722004 15.023500
						CHANNELS 3 Xrotation Yrotation Zrotation
						End Site
						{
							OFFSET 0.000000 30.670187 0.000000
						}
					}
				}
				JOINT newVegas:Right_PantLeg
				{
					OFFSET -0.661674 -9.044716 -1.108900
					CHANNELS 3 Xrotation Yrotation Zrotation
					End Site
					{
						OFFSET -1.415958 20.635269 0.000000
					}
				}
			}
		}
	}
	JOINT newVegas:Spine
	{
		OFFSET 0.000000 10.199997 -0.299500
		CHANNELS 3 Xrotation Yrotation Zrotation
		JOINT newVegas:Spine1
		{
			OFFSET 0.000000 11.900002 -1.516600
			CHANNELS 3 Xrotation Yrotation Zrotation
			JOINT newVegas:Spine2
			{
				OFFSET 0.000000 13.600006 -2.842500
				CHANNELS 3 Xrotation Yrotation Zrotation
				JOINT newVegas:Neck
				{
					OFFSET 0.000000 9.624100 -2.890100
					CHANNELS 3 Xrotation Yrotation Zrotation
					JOINT newVegas:Head
					{
						OFFSET 0.000000 14.068802 -1.351900
						CHANNELS 3 Xrotation Yrotation Zrotation
						JOINT newVegas:Hair_Back
						{
							OFFSET 0.000000 3.231903 -17.524799
							CHANNELS 3 Xrotation Yrotation Zrotation
							End Site
							{
								OFFSET 0.000000 19.849884 0.000000
							}
						}
						JOINT newVegas:Hair_Front
						{
							OFFSET 0.000000 31.260406 4.573800
							CHANNELS 3 Xrotation Yrotation Zrotation
							JOINT newVegas:Hair_Front1
							{
								OFFSET 0.000000 2.284103 11.993300
								CHANNELS 3 Xrotation Yrotation Zrotation
								JOINT newVegas:Hair_Front2
								{
									OFFSET 0.000000 2.284103 11.993300
									CHANNELS 3 Xrotation Yrotation Zrotation
									End Site
									{
										OFFSET 0.000000 12.208862 0.000000
									}
								}
							}
						}
						JOINT newVegas:Jowel
						{
							OFFSET 0.000000 -7.458206 6.864100
							CHANNELS 3 Xrotation Yrotation Zrotation
							End Site
							{
								OFFSET 0.000000 19.849884 0.000000
							}
						}
					}
				}
				JOINT newVegas:LeftShoulder
				{
					OFFSET 15.263000 10.923401 -0.547700
					CHANNELS 3 Xrotation Yrotation Zrotation
					JOINT newVegas:LeftArm
					{
						OFFSET 25.438599 -2.830597 -13.032500
						CHANNELS 3 Xrotation Yrotation Zrotation
						JOINT newVegas:LeftForeArm
						{
							OFFSET 29.960503 0.000000 0.000000
							CHANNELS 3 Xrotation Yrotation Zrotation
							JOINT newVegas:LeftHand
							{
								OFFSET 27.849251 0.000000 0.000000
								CHANNELS 3 Xrotation Yrotation Zrotation
								JOINT newVegas:LeftHandThumb1
								{
									OFFSET 4.487587 -3.305161 6.305391
									CHANNELS 3 Xrotation Yrotation Zrotation
									JOINT newVegas:LeftHandThumb2
									{
										OFFSET 5.480453 -3.164139 3.164143
										CHANNELS 3 Xrotation Yrotation Zrotation
										JOINT newVegas:LeftHandThumb3
										{
											OFFSET 5.159721 -2.978973 2.978967
											CHANNELS 3 Xrotation Yrotation Zrotation
											End Site
											{
												OFFSET 2.494507 5.926697 1.738678
											}
										}
									}
								}
								JOINT newVegas:LeftHandIndex1
								{
									OFFSET 18.578728 -0.527832 5.208049
									CHANNELS 3 Xrotation Yrotation Zrotation
									JOINT newVegas:LeftHandIndex2
									{
										OFFSET 3.192009 0.000000 0.000000
										CHANNELS 3 Xrotation Yrotation Zrotation
										JOINT newVegas:LeftHandIndex3
										{
											OFFSET 3.835129 0.000000 0.000000
											CHANNELS 3 Xrotation Yrotation Zrotation
											End Site
											{
												OFFSET -0.034599 3.816971 0.371180
											}
										}
									}
								}
								JOINT newVegas:LeftHandMiddle1
								{
									OFFSET 18.476105 0.000000 0.000000
									CHANNELS 3 Xrotation Yrotation Zrotation
									JOINT newVegas:LeftHandMiddle2
									{
										OFFSET 3.324875 0.000000 0.000000
										CHANNELS 3 Xrotation Yrotation Zrotation
										JOINT newVegas:LeftHandMiddle3
										{
											OFFSET 4.596550 0.000000 0.000000
											CHANNELS 3 Xrotation Yrotation Zrotation
											End Site
											{
												OFFSET 0.057701 4.578827 0.399218
											}
										}
									}
								}
								JOINT newVegas:LeftHandRing1
								{
									OFFSET 17.732719 0.121887 -4.201567
									CHANNELS 3 Xrotation Yrotation Zrotation
									JOINT newVegas:LeftHandRing2
									{
										OFFSET 2.733170 0.000000 0.000000
										CHANNELS 3 Xrotation Yrotation Zrotation
										JOINT newVegas:LeftHandRing3
										{
											OFFSET 3.178268 0.000000 0.000000
											CHANNELS 3 Xrotation Yrotation Zrotation
											End Site
											{
												OFFSET 0.119102 3.170624 0.185394
											}
										}
									}
								}
								JOINT newVegas:LeftHandPinky1
								{
									OFFSET 15.989624 -0.606689 -7.535461
									CHANNELS 3 Xrotation Yrotation Zrotation
									JOINT newVegas:LeftHandPinky2
									{
										OFFSET 2.538986 0.000000 0.000000
										CHANNELS 3 Xrotation Yrotation Zrotation
										JOINT newVegas:LeftHandPinky3
										{
											OFFSET 2.593102 0.000000 0.000000
											CHANNELS 3 Xrotation Yrotation Zrotation
											End Site
											{
												OFFSET -0.150902 2.584198 0.152708
											}
										}
									}
								}
							}
							JOINT newVegas:Left_Sleeve
							{
								OFFSET 0.267448 -0.649796 0.577675
								CHANNELS 3 Xrotation Yrotation Zrotation
								End Site
								{
									OFFSET 0.000000 15.991241 0.000000
								}
							}
							JOINT newVegas:Left_CapeC
							{
								OFFSET 15.715958 -8.608795 -6.935905
								CHANNELS 3 Xrotation Yrotation Zrotation
								JOINT newVegas:Left_CapeC1
								{
									OFFSET 0.000000 -8.688499 0.000000
									CHANNELS 3 Xrotation Yrotation Zrotation
									End Site
									{
										OFFSET 0.000000 8.688499 0.000000
									}
								}
							}
						}
						JOINT newVegas:Left_CapeB
						{
							OFFSET 26.118385 -8.608795 -7.079235
							CHANNELS 3 Xrotation Yrotation Zrotation
							JOINT newVegas:Left_CapeB1
							{
								OFFSET 0.000000 -8.688499 0.000000
								CHANNELS 3 Xrotation Yrotation Zrotation
								End Site
								{
									OFFSET 0.000000 8.688499 0.000000
								}
							}
						}
						JOINT newVegas:Left_CapeA
						{
							OFFSET 5.115639 -8.608795 -10.395809
							CHANNELS 3 Xrotation Yrotation Zrotation
							JOINT newVegas:Left_CapeA1
							{
								OFFSET 0.000000 -8.688499 0.000000
								CHANNELS 3 Xrotation Yrotation Zrotation
								End Site
								{
									OFFSET 0.000000 8.688499 0.000000
								}
							}
						}
					}
				}
				JOINT newVegas:RightShoulder
				{
					OFFSET -15.263000 10.923401 -0.547700
					CHANNELS 3 Xrotation Yrotation Zrotation
					JOINT newVegas:RightArm
					{
						OFFSET -25.438599 -2.830597 -13.032500
						CHANNELS 3 Xrotation Yrotation Zrotation
						JOINT newVegas:RightForeArm
						{
							OFFSET -29.960503 0.000000 0.000000
							CHANNELS 3 Xrotation Yrotation Zrotation
							JOINT newVegas:RightHand
							{
								OFFSET -27.849251 0.000000 0.000000
								CHANNELS 3 Xrotation Yrotation Zrotation
								JOINT newVegas:RightHandThumb1
								{
									OFFSET -4.487587 -3.305161 6.305391
									CHANNELS 3 Xrotation Yrotation Zrotation
									JOINT newVegas:RightHandThumb2
									{
										OFFSET -5.480453 -3.164139 3.164143
										CHANNELS 3 Xrotation Yrotation Zrotation
										JOINT newVegas:RightHandThumb3
										{
											OFFSET -5.159721 -2.978973 2.978967
											CHANNELS 3 Xrotation Yrotation Zrotation
											End Site
											{
												OFFSET -2.494507 5.926697 1.738678
											}
										}
									}
								}
								JOINT newVegas:RightHandIndex1
								{
									OFFSET -18.578728 -0.527832 5.208049
									CHANNELS 3 Xrotation Yrotation Zrotation
									JOINT newVegas:RightHandIndex2
									{
										OFFSET -3.192009 0.000000 0.000000
										CHANNELS 3 Xrotation Yrotation Zrotation
										JOINT newVegas:RightHandIndex3
										{
											OFFSET -3.835129 0.000000 0.000000
											CHANNELS 3 Xrotation Yrotation Zrotation
											End Site
											{
												OFFSET 0.034599 3.816971 0.371180
											}
										}
									}
								}
								JOINT newVegas:RightHandMiddle1
								{
									OFFSET -18.476105 0.000000 0.000000
									CHANNELS 3 Xrotation Yrotation Zrotation
									JOINT newVegas:RightHandMiddle2
									{
										OFFSET -3.324875 0.000000 0.000000
										CHANNELS 3 Xrotation Yrotation Zrotation
										JOINT newVegas:RightHandMiddle3
										{
											OFFSET -4.596550 0.000000 0.000000
											CHANNELS 3 Xrotation Yrotation Zrotation
											End Site
											{
												OFFSET -0.057701 4.578827 0.399218
											}
										}
									}
								}
								JOINT newVegas:RightHandRing1
								{
									OFFSET -17.732719 0.121887 -4.201567
									CHANNELS 3 Xrotation Yrotation Zrotation
									JOINT newVegas:RightHandRing2
									{
										OFFSET -2.733170 0.000000 0.000000
										CHANNELS 3 Xrotation Yrotation Zrotation
										JOINT newVegas:RightHandRing3
										{
											OFFSET -3.178268 0.000000 0.000000
											CHANNELS 3 Xrotation Yrotation Zrotation
											End Site
											{
												OFFSET -0.119102 3.170624 0.185394
											}
										}
									}
								}
								JOINT newVegas:RightHandPinky1
								{
									OFFSET -15.989624 -0.606689 -7.535461
									CHANNELS 3 Xrotation Yrotation Zrotation
									JOINT newVegas:RightHandPinky2
									{
										OFFSET -2.538986 0.000000 0.000000
										CHANNELS 3 Xrotation Yrotation Zrotation
										JOINT newVegas:RightHandPinky3
										{
											OFFSET -2.593102 0.000000 0.000000
											CHANNELS 3 Xrotation Yrotation Zrotation
											End Site
											{
												OFFSET 0.150902 2.584198 0.152708
											}
										}
									}
								}
							}
							JOINT newVegas:Right_CapeC
							{
								OFFSET -15.715958 -8.608795 -6.935905
								CHANNELS 3 Xrotation Yrotation Zrotation
								JOINT newVegas:Right_CapeC1
								{
									OFFSET 0.000000 -8.688499 0.000000
									CHANNELS 3 Xrotation Yrotation Zrotation
									End Site
									{
										OFFSET 0.000000 8.688499 0.000000
									}
								}
							}
							JOINT newVegas:Right_Sleeve
							{
								OFFSET -0.267448 -0.649994 0.577675
								CHANNELS 3 Xrotation Yrotation Zrotation
								End Site
								{
									OFFSET 0.000000 15.991302 0.000000
								}
							}
						}
						JOINT newVegas:Right_CapeA
						{
							OFFSET -5.115540 -8.608795 -10.395824
							CHANNELS 3 Xrotation Yrotation Zrotation
							JOINT newVegas:Right_CapeA1
							{
								OFFSET 0.000000 -8.688499 0.000000
								CHANNELS 3 Xrotation Yrotation Zrotation
								End Site
								{
									OFFSET 0.000000 8.688499 0.000000
								}
							}
						}
						JOINT newVegas:Right_CapeB
						{
							OFFSET -26.118187 -8.608795 -7.079266
							CHANNELS 3 Xrotation Yrotation Zrotation
							JOINT newVegas:Right_CapeB1
							{
								OFFSET 0.000000 -8.688499 0.000000
								CHANNELS 3 Xrotation Yrotation Zrotation
								End Site
								{
									OFFSET 0.000000 8.688499 0.000000
								}
							}
						}
					}
				}
				JOINT newVegas:Left_Collar
				{
					OFFSET 18.625099 8.655502 8.828100
					CHANNELS 3 Xrotation Yrotation Zrotation
					JOINT newVegas:Left_Collar1
					{
						OFFSET 14.783401 10.540405 -1.259500
						CHANNELS 3 Xrotation Yrotation Zrotation
						End Site
						{
							OFFSET 0.000000 18.199875 0.000000
						}
					}
				}
				JOINT newVegas:Collar_Back
				{
					OFFSET 0.000000 15.630707 -20.132601
					CHANNELS 3 Xrotation Yrotation Zrotation
					End Site
					{
						OFFSET 0.000000 22.523010 0.000000
					}
				}
				JOINT newVegas:Left_Peck
				{
					OFFSET 17.239599 -5.132599 25.482599
					CHANNELS 3 Xrotation Yrotation Zrotation
					End Site
					{
						OFFSET 0.000000 22.523010 0.000000
					}
				}
				JOINT newVegas:Right_Peck
				{
					OFFSET -17.239599 -5.132202 25.482599
					CHANNELS 3 Xrotation Yrotation Zrotation
					End Site
					{
						OFFSET 0.000000 22.523010 0.000000
					}
				}
				JOINT newVegas:Right_Collar
				{
					OFFSET -18.625099 8.655792 8.828100
					CHANNELS 3 Xrotation Yrotation Zrotation
					JOINT newVegas:Right_Collar1
					{
						OFFSET -14.783401 10.539993 -1.259500
						CHANNELS 3 Xrotation Yrotation Zrotation
						End Site
						{
							OFFSET 0.000000 18.199631 0.000000
						}
					}
				}
			}
		}
		JOINT newVegas:Belly
		{
			OFFSET 0.000000 -6.540398 9.014299
			CHANNELS 3 Xrotation Yrotation Zrotation
			End Site
			{
				OFFSET 0.000000 11.566666 0.000000
			}
		}
	}
	JOINT newVegas:ElvisFacialAnim_Joint
	{
		OFFSET 1.000000 -95.330101 -8.825800
		CHANNELS 3 Xrotation Yrotation Zrotation
		End Site
		{
			OFFSET 0.000000 35.315800 0.000000
		}
	}
}
MOTION
Frames: 4
Frame Time: 0.016667
4.327806 89.128052 -2.427393 7.742700 -32.336165 -17.315368 0.000001 -0.000001 -0.000001 -40.693881 -10.602365 23.883437 65.214045 6.034327 9.755171 -20.876791 31.661714 -13.940730 -0.000000 -0.000000 -0.000000 0.000002 -0.000002 0.000002 -22.418843 6.037549 25.436651 -0.314042 -0.418357 3.338342 17.830410 11.771030 -5.296406 0.000000 -0.000000 0.000000 -0.000000 -0.000001 -0.000000 19.768567 -6.712380 12.336354 14.882774 -0.853694 11.261192 15.131246 -0.648052 9.675235 0.498569 -0.565460 2.363964 0.498548 -0.565464 2.363961 0.000000 -0.000000 0.000000 0.498561 -0.565525 2.363988 0.498655 -0.565431 2.363949 0.000003 -0.000001 0.000001 0.000000 -0.000000 -0.000000 1.428814 -22.224476 -11.600548 -29.377094 -24.713911 -57.022845 0.000000 -6.918352 0.000005 -21.663613 1.158975 -14.566403 18.491277 -0.461421 10.916064 1.284052 32.757604 -3.088985 0.000000 -0.000003 0.000000 0.339561 4.671350 -7.844260 0.387028 2.823580 -20.566227 -0.000001 0.000000 -0.000002 0.912593 8.769263 -15.831752 0.919083 3.991127 -33.400428 0.000000 -0.000000 -0.000000 2.555833 11.673019 -26.909202 1.710655 3.886771 -40.215467 -0.000001 -0.000001 -0.000000 5.576077 16.029185 -36.940627 1.378682 4.077628 -45.645632 -0.000001 0.000000 -0.000001 0.000001 0.000000 -0.000000 0.000001 0.000000 -0.000000 0.000001 0.000000 -0.000000 0.000000 -0.000001 -0.000000 0.000000 -0.000001 -0.000000 0.000000 -0.000001 -0.000000 0.000000 -0.000001 0.000000 2.724532 8.294348 13.453004 6.429294 49.813820 20.457865 0.000001 22.722607 -0.000003 -0.688170 13.861787 2.493905 18.491282 0.461423 -10.916072 1.284040 -32.757604 3.088954 0.000000 -0.000000 -0.000000 0.339560 -4.671353 7.844280 0.387031 -2.823580 20.566265 -0.000002 0.000000 -0.000001 0.912592 -8.769260 15.831740 0.919074 -3.991127 33.400438 -0.000000 -0.000000 -0.000001 2.555830 -11.673015 26.909219 1.710652 -3.886776 40.215443 -0.000001 0.000001 0.000002 5.576084 -16.029184 36.940651 1.378675 -4.077623 45.645611 -0.000000 0.000003 -0.000000 0.000000 -0.000000 0.000000 0.000000 0.000000 0.000001 0.000000 -0.000000 0.000001 -0.000000 0.000000 -0.000000 -0.000000 0.000000 0.000000 -0.000000 0.000000 -0.000000 -0.000000 -0.000000 0.000000 -0.000003 0.000001 0.000002 -0.000003 0.000001 0.000002 -0.000003 0.000001 0.000002 -0.000003 0.000001 0.000002 -0.000003 0.000001 0.000002 -0.000003 0.000001 0.000002 -0.000003 0.000001 0.000002 -0.000001 -0.000000 -0.000001 0.000001 -0.000001 -0.000001 
4.272036 89.133537 -2.427763 7.748009 -32.209693 -17.306897 0.000000 -0.000002 -0.000001 -40.729248 -10.579400 23.952171 65.156904 6.001167 9.754340 -20.843174 31.482316 -13.957504 -0.000000 -0.000001 -0.000000 -0.000002 0.000000 0.000001 -22.380510 6.047172 25.480048 -0.313725 -0.394705 3.307880 17.762943 11.625261 -5.334974 -0.000000 0.000001 0.000000 0.000003 0.000001 -0.000000 19.694984 -6.739531 12.412723 14.845370 -0.865576 11.290753 15.093024 -0.659109 9.704714 0.508492 -0.564964 2.361567 0.508472 -0.564959 2.361559 -0.000003 0.000000 -0.000000 0.508494 -0.564959 2.361568 0.508447 -0.564917 2.361556 -0.000001 -0.000001 0.000001 -0.000003 0.000000 -0.000000 1.421042 -22.263285 -11.624764 -29.239493 -24.946689 -57.154033 -0.000005 -6.919543 -0.000010 -22.087459 0.509898 -14.614103 18.491277 -0.461419 10.916066 1.284056 32.757608 -3.088984 -0.000000 -0.000001 -0.000001 0.339562 4.671349 -7.844258 0.387029 2.823579 -20.566226 0.000000 -0.000001 0.000002 0.912592 8.769262 -15.831750 0.919078 3.991126 -33.400428 0.000001 -0.000001 -0.000001 2.555834 11.673016 -26.909200 1.710655 3.886771 -40.215467 0.000001 -0.000001 -0.000001 5.576078 16.029184 -36.940624 1.378683 4.077624 -45.645635 0.000001 0.000000 -0.000001 0.000000 -0.000000 -0.000000 0.000000 -0.000000 -0.000000 0.000000 -0.000000 -0.000000 -0.000000 0.000000 -0.000000 -0.000000 0.000000 -0.000000 -0.000000 0.000000 -0.000000 -0.000000 -0.000000 0.000000 2.805141 8.300645 13.088454 6.473856 49.476330 20.586786 -0.000004 23.126213 0.000010 -0.900178 13.002781 2.887921 18.491279 0.461419 -10.916074 1.284039 -32.757604 3.088951 0.000000 0.000002 0.000001 0.339560 -4.671355 7.844279 0.387031 -2.823582 20.566266 -0.000001 -0.000000 -0.000003 0.912590 -8.769261 15.831738 0.919073 -3.991127 33.400438 0.000000 -0.000001 -0.000002 2.555832 -11.673019 26.909219 1.710652 -3.886777 40.215443 -0.000001 -0.000001 0.000001 5.576084 -16.029185 36.940655 1.378673 -4.077622 45.645615 -0.000000 -0.000000 0.000003 0.000000 0.000000 -0.000000 -0.000000 0.000000 -0.000001 -0.000000 0.000000 0.000000 0.000000 -0.000003 -0.000000 0.000000 -0.000003 0.000000 0.000000 -0.000003 -0.000000 0.000000 -0.000003 0.000000 -0.000000 0.000001 0.000001 -0.000000 0.000001 0.000001 -0.000000 0.000001 0.000001 -0.000000 0.000001 0.000001 -0.000000 0.000001 0.000001 -0.000000 0.000001 0.000001 -0.000000 0.000001 0.000001 0.000000 -0.000001 0.000000 0.000000 -0.000002 -0.000001 
4.216009 89.142708 -2.425289 7.750037 -32.063640 -17.294271 0.000000 -0.000001 0.000001 -40.754482 -10.564978 24.004626 65.079135 5.995404 9.753875 -20.792520 31.272998 -13.985868 0.000000 -0.000000 -0.000001 0.000001 -0.000001 -0.000000 -22.333672 6.059912 25.515142 -0.311887 -0.367106 3.277115 17.685358 11.459615 -5.371360 0.000000 -0.000000 0.000000 0.000000 0.000000 -0.000001 19.624015 -6.765306 12.490432 14.807951 -0.877138 11.320874 15.054847 -0.669728 9.734744 0.518158 -0.564814 2.359691 0.518135 -0.564818 2.359685 0.000001 0.000000 -0.000001 0.518169 -0.564841 2.359694 0.518181 -0.564781 2.359707 0.000002 0.000000 -0.000001 0.000001 0.000000 -0.000001 1.413653 -22.300059 -11.647850 -29.076747 -25.170190 -57.285350 -0.000008 -6.920557 0.000005 -22.500206 -0.128296 -14.674330 18.491282 -0.461421 10.916068 1.284056 32.757608 -3.088983 0.000001 0.000000 0.000001 0.339560 4.671350 -7.844259 0.387028 2.823579 -20.566224 0.000001 0.000001 -0.000001 0.912593 8.769260 -15.831748 0.919078 3.991127 -33.400428 -0.000000 0.000001 -0.000002 2.555831 11.673015 -26.909195 1.710655 3.886773 -40.215471 0.000001 -0.000001 0.000000 5.576077 16.029182 -36.940621 1.378684 4.077629 -45.645639 0.000001 0.000003 0.000001 0.000000 0.000001 -0.000000 0.000000 0.000001 -0.000000 0.000000 0.000001 -0.000000 -0.000000 0.000000 -0.000000 -0.000000 0.000000 -0.000000 -0.000000 0.000000 -0.000000 -0.000000 -0.000000 -0.000000 2.887485 8.303043 12.724784 6.502536 49.145069 20.735549 0.000006 23.528016 -0.000024 -1.075810 12.131585 3.207549 18.491284 0.461417 -10.916077 1.284039 -32.757608 3.088952 0.000003 -0.000000 -0.000001 0.339562 -4.671356 7.844281 0.387031 -2.823579 20.566268 0.000000 0.000001 -0.000000 0.912591 -8.769262 15.831736 0.919074 -3.991128 33.400445 -0.000001 0.000002 0.000002 2.555831 -11.673016 26.909219 1.710651 -3.886778 40.215450 0.000001 -0.000001 0.000001 5.576084 -16.029185 36.940651 1.378673 -4.077623 45.645618 0.000000 0.000001 0.000002 0.000001 -0.000000 0.000001 0.000000 -0.000000 0.000001 0.000001 -0.000000 0.000002 0.000000 0.000002 -0.000001 0.000000 0.000002 -0.000001 0.000000 0.000002 -0.000001 0.000000 0.000002 -0.000000 0.000002 0.000001 -0.000001 0.000002 0.000001 -0.000001 0.000002 0.000001 -0.000001 0.000002 0.000001 -0.000001 0.000002 0.000001 -0.000001 0.000002 0.000001 -0.000001 0.000002 0.000001 -0.000001 -0.000000 0.000002 -0.000001 0.000000 -0.000001 0.000001 
4.159952 89.155693 -2.419552 7.748208 -31.899104 -17.277529 -0.000000 0.000000 0.000002 -40.766268 -10.559497 24.039042 64.981368 6.011748 9.753795 -20.726347 31.046912 -14.024766 -0.000000 0.000001 0.000000 -0.000002 -0.000002 0.000001 -22.275002 6.075607 25.540579 -0.312826 -0.340570 3.246746 17.600563 11.281316 -5.407342 -0.000000 -0.000000 0.000000 0.000000 -0.000000 -0.000001 19.555163 -6.788842 12.569455 14.770576 -0.887979 11.351585 15.016746 -0.679456 9.765318 0.527482 -0.565088 2.358169 0.527476 -0.565074 2.358164 -0.000001 0.000001 -0.000002 0.527435 -0.565062 2.358167 0.527533 -0.565100 2.358160 -0.000001 0.000002 -0.000002 -0.000001 0.000001 -0.000002 1.406871 -22.333691 -11.669298 -28.888828 -25.384557 -57.416319 -0.000008 -6.922042 -0.000000 -22.902246 -0.751414 -14.745279 18.491284 -0.461420 10.916066 1.284053 32.757608 -3.088979 0.000001 -0.000002 -0.000001 0.339562 4.671350 -7.844259 0.387025 2.823579 -20.566226 0.000001 -0.000000 -0.000001 0.912594 8.769263 -15.831750 0.919079 3.991127 -33.400428 0.000003 -0.000000 -0.000000 2.555835 11.673019 -26.909200 1.710656 3.886774 -40.215467 0.000001 0.000001 -0.000000 5.576081 16.029180 -36.940621 1.378679 4.077624 -45.645632 -0.000001 0.000000 -0.000000 0.000000 -0.000000 -0.000000 0.000000 -0.000000 -0.000000 0.000000 -0.000000 -0.000000 -0.000000 -0.000001 -0.000000 -0.000000 -0.000001 -0.000000 -0.000000 -0.000001 -0.000000 -0.000000 -0.000001 -0.000000 2.971382 8.302330 12.360875 6.513137 48.819942 20.906746 -0.000001 23.926607 -0.000011 -1.214034 11.254101 3.455832 18.491277 0.461422 -10.916074 1.284035 -32.757608 3.088954 0.000001 -0.000001 -0.000002 0.339560 -4.671354 7.844280 0.387031 -2.823580 20.566266 0.000000 0.000002 0.000000 0.912590 -8.769260 15.831740 0.919077 -3.991129 33.400438 -0.000002 -0.000002 -0.000006 2.555829 -11.673017 26.909219 1.710652 -3.886774 40.215447 -0.000001 -0.000001 0.000001 5.576081 -16.029187 36.940655 1.378679 -4.077618 45.645618 -0.000000 -0.000004 -0.000001 0.000000 -0.000000 0.000000 0.000000 -0.000000 -0.000000 0.000000 -0.000000 0.000001 -0.000000 0.000000 -0.000000 -0.000000 -0.000001 -0.000000 -0.000000 0.000000 -0.000000 -0.000000 -0.000001 0.000000 -0.000003 0.000000 -0.000002 -0.000003 0.000000 -0.000002 -0.000003 0.000000 -0.000002 -0.000003 0.000000 -0.000002 -0.000003 0.000000 -0.000002 -0.000003 0.000000 -0.000002 -0.000003 0.000000 -0.000002 -0.000000 0.000001 0.000001 -0.000000 0.000000 0.000002 
